<?xml version="1.0" encoding="UTF-8" standalone="no"?>
<!-- Created with Inkscape (http://www.inkscape.org/) -->

<svg
   xmlns:dc="http://purl.org/dc/elements/1.1/"
   xmlns:cc="http://creativecommons.org/ns#"
   xmlns:rdf="http://www.w3.org/1999/02/22-rdf-syntax-ns#"
   xmlns:svg="http://www.w3.org/2000/svg"
   xmlns="http://www.w3.org/2000/svg"
   xmlns:sodipodi="http://sodipodi.sourceforge.net/DTD/sodipodi-0.dtd"
   xmlns:inkscape="http://www.inkscape.org/namespaces/inkscape"
   width="132mm"
   height="141mm"
   viewBox="0 0 467.71631 499.60601"
   id="svg4159"
   version="1.1"
   inkscape:version="0.91 r13725"
   sodipodi:docname="logo.svg">
  <defs
     id="defs4161" />
  <sodipodi:namedview
     id="base"
     pagecolor="#ffffff"
     bordercolor="#666666"
     borderopacity="1.0"
     inkscape:pageopacity="0.0"
     inkscape:pageshadow="2"
     inkscape:zoom="0.49497475"
     inkscape:cx="71.912365"
     inkscape:cy="529.91713"
     inkscape:document-units="px"
     inkscape:current-layer="layer1"
     showgrid="false"
     inkscape:window-width="1366"
     inkscape:window-height="745"
     inkscape:window-x="0"
     inkscape:window-y="0"
     inkscape:window-maximized="1" />
  <metadata
     id="metadata4164">
    <rdf:RDF>
      <cc:Work
         rdf:about="">
        <dc:format>image/svg+xml</dc:format>
        <dc:type
           rdf:resource="http://purl.org/dc/dcmitype/StillImage" />
        <dc:title></dc:title>
      </cc:Work>
    </rdf:RDF>
  </metadata>
  <g
     inkscape:label="Layer 1"
     inkscape:groupmode="layer"
     id="layer1"
     transform="translate(0,-552.75628)">
    <path
       style="fill:#037fde;fill-opacity:1"
       d="m 372.9276,561.13136 -11.02849,25.51173 c -6.06636,14.03284 -37.21949,90.5086 -69.23191,169.9403 -23.99014,59.52542 -46.24391,110.92521 -57.29183,132.95669 -0.008,0 -0.0186,0 -0.0303,0.11651 l -49.01304,116.55511 15.72005,35.9012 27.45261,2.0157 c 16.65879,1.2211 30.19041,-1.4238 34.42698,-6.7216 14.0552,-17.5737 197.40418,-450.34214 195.35544,-461.10679 -1.64841,-8.65809 -11.40061,-11.55578 -44.23254,-13.11822 l -42.12763,-2.00169 z"
       id="path4237-5-6"
       inkscape:connector-curvature="0" />
    <path
       style="fill:#0da5f3;fill-opacity:1"
       d="M 47.626422,560.45442 C 28.251991,560.15148 9.3452695,563.81466 6.3288935,571.67464 2.554449,581.51068 28.457928,644.7016 150.72942,923.97205 l 51.46628,117.55485 27.45264,2.0086 c 16.6588,1.2211 30.19037,-1.4168 34.42694,-6.7146 1.44216,-1.8036 5.03363,-8.8725 9.65734,-18.514 L 208.28805,859.04625 C 197.3597,833.84095 183.07177,799.11769 167.59826,760.00422 L 98.277421,591.30128 c -0.907172,-2.20792 -1.236659,-4.43565 -1.14882,-6.56668 -2.59264,-5.98528 -4.625527,-10.48968 -5.388234,-11.73288 -4.898575,-7.98348 -24.739558,-12.2467 -44.113945,-12.5473 z"
       id="path4237-3-2"
       inkscape:connector-curvature="0" />
  </g>
</svg>
